{
	"asset":{
		"generator":"Khronos glTF Blender I/O v4.5.47",
		"version":"2.0"
	},
	"extensionsUsed":[
		"EXT_texture_webp"
	],
	"extensionsRequired":[
		"EXT_texture_webp"
	],
	"scene":0,
	"scenes":[
		{
			"name":"Scene",
			"nodes":[
				0,
				1,
				2,
				3,
				4
			]
		}
	],
	"nodes":[
		{
			"mesh":0,
			"name":"suelo",
			"scale":[
				6,
				5.815968990325928,
				6
			],
			"translation":[
				0,
				0,
				-5.951333999633789
			]
		},
		{
			"mesh":1,
			"name":"arbol_B.001",
			"rotation":[
				0,
				0.7111512422561646,
				0,
				0.7030390501022339
			],
			"scale":[
				0.6720958352088928,
				0.6720958352088928,
				0.6720958352088928
			],
			"translation":[
				-0.16137558221817017,
				0,
				-9.557395935058594
			]
		},
		{
			"mesh":2,
			"name":"arbol_B.002",
			"rotation":[
				0.004548273049294949,
				0.7478718161582947,
				0.0020767785608768463,
				0.6638243198394775
			],
			"scale":[
				0.4818674623966217,
				0.4818674325942993,
				0.4818674921989441
			],
			"translation":[
				-4.029842853546143,
				0,
				-3.5327072143554688
			]
		},
		{
			"mesh":3,
			"name":"arbol_B.003",
			"rotation":[
				0.016633786261081696,
				0.6688316464424133,
				-0.02113974466919899,
				0.7429271340370178
			],
			"scale":[
				0.3879711627960205,
				0.3879711627960205,
				0.3879711329936981
			],
			"translation":[
				1.507587194442749,
				0,
				-3.781040668487549
			]
		},
		{
			"mesh":4,
			"name":"hierba_B",
			"rotation":[
				-0.26848089694976807,
				0.6128053665161133,
				0.29581207036972046,
				0.6818232536315918
			],
			"scale":[
				0.3879711627960205,
				0.3879711627960205,
				0.3879711925983429
			],
			"translation":[
				0,
				0,
				-0.40747442841529846
			]
		}
	],
	"materials":[
		{
			"doubleSided":true,
			"name":"suelo",
			"pbrMetallicRoughness":{
				"baseColorFactor":[
					0.17347517609596252,
					0.07559934258460999,
					0.0011960971169173717,
					1
				],
				"metallicFactor":0
			}
		},
		{
			"doubleSided":true,
			"name":"Material",
			"normalTexture":{
				"index":0
			},
			"pbrMetallicRoughness":{
				"baseColorTexture":{
					"index":1
				},
				"metallicRoughnessTexture":{
					"index":2
				}
			}
		}
	],
	"meshes":[
		{
			"name":"Plane.001",
			"primitives":[
				{
					"attributes":{
						"POSITION":0,
						"NORMAL":1,
						"TEXCOORD_0":2
					},
					"indices":3,
					"material":0
				}
			]
		},
		{
			"name":"Cylinder.001",
			"primitives":[
				{
					"attributes":{
						"POSITION":4,
						"NORMAL":5,
						"TEXCOORD_0":6
					},
					"indices":7,
					"material":1
				}
			]
		},
		{
			"name":"Cylinder.003",
			"primitives":[
				{
					"attributes":{
						"POSITION":8,
						"NORMAL":9,
						"TEXCOORD_0":10
					},
					"indices":11,
					"material":1
				}
			]
		},
		{
			"name":"Cylinder.004",
			"primitives":[
				{
					"attributes":{
						"POSITION":12,
						"NORMAL":13,
						"TEXCOORD_0":14
					},
					"indices":11,
					"material":1
				}
			]
		},
		{
			"name":"Cylinder.005",
			"primitives":[
				{
					"attributes":{
						"POSITION":15,
						"NORMAL":16,
						"TEXCOORD_0":17
					},
					"indices":18,
					"material":1
				}
			]
		}
	],
	"textures":[
		{
			"extensions":{
				"EXT_texture_webp":{
					"source":0
				}
			},
			"sampler":0
		},
		{
			"extensions":{
				"EXT_texture_webp":{
					"source":1
				}
			},
			"sampler":0
		},
		{
			"extensions":{
				"EXT_texture_webp":{
					"source":2
				}
			},
			"sampler":0
		}
	],
	"images":[
		{
			"mimeType":"image/webp",
			"name":"arbol_B normalmap",
			"uri":"arbol_B%20normalmap.webp"
		},
		{
			"mimeType":"image/webp",
			"name":"arbol_B_diffuse",
			"uri":"arbol_B_diffuse.webp"
		},
		{
			"mimeType":"image/webp",
			"name":"arbol_B_metallic-arbol_B_roughness",
			"uri":"arbol_B_metallic-arbol_B_roughness.webp"
		}
	],
	"accessors":[
		{
			"bufferView":0,
			"componentType":5126,
			"count":4,
			"max":[
				1,
				0,
				1
			],
			"min":[
				-1,
				0,
				-1
			],
			"type":"VEC3"
		},
		{
			"bufferView":1,
			"componentType":5126,
			"count":4,
			"type":"VEC3"
		},
		{
			"bufferView":2,
			"componentType":5126,
			"count":4,
			"type":"VEC2"
		},
		{
			"bufferView":3,
			"componentType":5123,
			"count":6,
			"type":"SCALAR"
		},
		{
			"bufferView":4,
			"componentType":5126,
			"count":2585,
			"max":[
				1.3683356046676636,
				9.316410064697266,
				5.879095077514648
			],
			"min":[
				-1.2549920082092285,
				-1.4252060509534203e-07,
				-1.0005486011505127
			],
			"type":"VEC3"
		},
		{
			"bufferView":5,
			"componentType":5126,
			"count":2585,
			"type":"VEC3"
		},
		{
			"bufferView":6,
			"componentType":5126,
			"count":2585,
			"type":"VEC2"
		},
		{
			"bufferView":7,
			"componentType":5123,
			"count":5604,
			"type":"SCALAR"
		},
		{
			"bufferView":8,
			"componentType":5126,
			"count":2416,
			"max":[
				1.3683356046676636,
				10.224045753479004,
				5.65336799621582
			],
			"min":[
				-1.2549920082092285,
				-1.4252060509534203e-07,
				-0.960250973701477
			],
			"type":"VEC3"
		},
		{
			"bufferView":9,
			"componentType":5126,
			"count":2416,
			"type":"VEC3"
		},
		{
			"bufferView":10,
			"componentType":5126,
			"count":2416,
			"type":"VEC2"
		},
		{
			"bufferView":11,
			"componentType":5123,
			"count":5100,
			"type":"SCALAR"
		},
		{
			"bufferView":12,
			"componentType":5126,
			"count":2416,
			"max":[
				1.3683356046676636,
				10.224045753479004,
				5.65336799621582
			],
			"min":[
				-1.2549920082092285,
				-1.4252060509534203e-07,
				-0.960250973701477
			],
			"type":"VEC3"
		},
		{
			"bufferView":13,
			"componentType":5126,
			"count":2416,
			"type":"VEC3"
		},
		{
			"bufferView":14,
			"componentType":5126,
			"count":2416,
			"type":"VEC2"
		},
		{
			"bufferView":15,
			"componentType":5126,
			"count":86,
			"max":[
				0.49227046966552734,
				2.24794340133667,
				2.1393754482269287
			],
			"min":[
				-0.43901926279067993,
				-0.23777633905410767,
				-0.2501947283744812
			],
			"type":"VEC3"
		},
		{
			"bufferView":16,
			"componentType":5126,
			"count":86,
			"type":"VEC3"
		},
		{
			"bufferView":17,
			"componentType":5126,
			"count":86,
			"type":"VEC2"
		},
		{
			"bufferView":18,
			"componentType":5123,
			"count":138,
			"type":"SCALAR"
		}
	],
	"bufferViews":[
		{
			"buffer":0,
			"byteLength":48,
			"byteOffset":0,
			"target":34962
		},
		{
			"buffer":0,
			"byteLength":48,
			"byteOffset":48,
			"target":34962
		},
		{
			"buffer":0,
			"byteLength":32,
			"byteOffset":96,
			"target":34962
		},
		{
			"buffer":0,
			"byteLength":12,
			"byteOffset":128,
			"target":34963
		},
		{
			"buffer":0,
			"byteLength":31020,
			"byteOffset":140,
			"target":34962
		},
		{
			"buffer":0,
			"byteLength":31020,
			"byteOffset":31160,
			"target":34962
		},
		{
			"buffer":0,
			"byteLength":20680,
			"byteOffset":62180,
			"target":34962
		},
		{
			"buffer":0,
			"byteLength":11208,
			"byteOffset":82860,
			"target":34963
		},
		{
			"buffer":0,
			"byteLength":28992,
			"byteOffset":94068,
			"target":34962
		},
		{
			"buffer":0,
			"byteLength":28992,
			"byteOffset":123060,
			"target":34962
		},
		{
			"buffer":0,
			"byteLength":19328,
			"byteOffset":152052,
			"target":34962
		},
		{
			"buffer":0,
			"byteLength":10200,
			"byteOffset":171380,
			"target":34963
		},
		{
			"buffer":0,
			"byteLength":28992,
			"byteOffset":181580,
			"target":34962
		},
		{
			"buffer":0,
			"byteLength":28992,
			"byteOffset":210572,
			"target":34962
		},
		{
			"buffer":0,
			"byteLength":19328,
			"byteOffset":239564,
			"target":34962
		},
		{
			"buffer":0,
			"byteLength":1032,
			"byteOffset":258892,
			"target":34962
		},
		{
			"buffer":0,
			"byteLength":1032,
			"byteOffset":259924,
			"target":34962
		},
		{
			"buffer":0,
			"byteLength":688,
			"byteOffset":260956,
			"target":34962
		},
		{
			"buffer":0,
			"byteLength":276,
			"byteOffset":261644,
			"target":34963
		}
	],
	"samplers":[
		{
			"magFilter":9729,
			"minFilter":9987
		}
	],
	"buffers":[
		{
			"byteLength":261920,
			"uri":"MN_SCENE_01.bin"
		}
	]
}
