{
	"asset":{
		"generator":"Khronos glTF Blender I/O v4.5.47",
		"version":"2.0"
	},
	"extensionsUsed":[
		"EXT_texture_webp"
	],
	"extensionsRequired":[
		"EXT_texture_webp"
	],
	"scene":0,
	"scenes":[
		{
			"name":"Scene",
			"nodes":[
				0,
				1,
				2,
				3,
				4
			]
		}
	],
	"nodes":[
		{
			"mesh":0,
			"name":"suelo",
			"scale":[
				6,
				5.815968990325928,
				6
			],
			"translation":[
				0,
				0,
				-5.951333999633789
			]
		},
		{
			"mesh":1,
			"name":"montes hierba",
			"scale":[
				6,
				5.815968990325928,
				6
			],
			"translation":[
				0,
				0.08107385784387589,
				-5.951333999633789
			]
		},
		{
			"mesh":2,
			"name":"Cylinder.001",
			"rotation":[
				0,
				0.7111512422561646,
				0,
				0.7030390501022339
			],
			"scale":[
				0.6720958352088928,
				0.6720958352088928,
				0.6720958352088928
			],
			"translation":[
				-0.16137558221817017,
				0,
				-9.557395935058594
			]
		},
		{
			"mesh":3,
			"name":"Cylinder.003",
			"rotation":[
				0.004548273049294949,
				0.7478718161582947,
				0.0020767785608768463,
				0.6638243198394775
			],
			"scale":[
				0.4818674623966217,
				0.4818674325942993,
				0.4818674921989441
			],
			"translation":[
				-4.029842853546143,
				0,
				-3.5327072143554688
			]
		},
		{
			"mesh":4,
			"name":"Cylinder.004",
			"rotation":[
				0.016633786261081696,
				0.6688316464424133,
				-0.02113974466919899,
				0.7429271340370178
			],
			"scale":[
				0.3879711627960205,
				0.3879711627960205,
				0.3879711329936981
			],
			"translation":[
				1.507587194442749,
				0,
				-3.781040668487549
			]
		}
	],
	"materials":[
		{
			"doubleSided":true,
			"name":"suelo",
			"pbrMetallicRoughness":{
				"baseColorFactor":[
					0.17347517609596252,
					0.07559934258460999,
					0.0011960971169173717,
					1
				],
				"metallicFactor":0
			}
		},
		{
			"doubleSided":true,
			"name":"hierba perimetro",
			"pbrMetallicRoughness":{
				"baseColorFactor":[
					0.1869000643491745,
					0.09926401078701019,
					0.003438448067754507,
					1
				],
				"metallicFactor":0.19545455276966095,
				"roughnessFactor":0.5181818008422852
			}
		},
		{
			"doubleSided":true,
			"name":"verde hierba monte",
			"pbrMetallicRoughness":{
				"baseColorFactor":[
					1,
					0.41658368706703186,
					0,
					1
				],
				"metallicFactor":0,
				"roughnessFactor":0.48181799054145813
			}
		},
		{
			"doubleSided":true,
			"name":"Material",
			"pbrMetallicRoughness":{
				"baseColorTexture":{
					"index":0
				},
				"metallicRoughnessTexture":{
					"index":1
				}
			}
		}
	],
	"meshes":[
		{
			"name":"Plane.001",
			"primitives":[
				{
					"attributes":{
						"POSITION":0,
						"NORMAL":1,
						"TEXCOORD_0":2
					},
					"indices":3,
					"material":0
				}
			]
		},
		{
			"name":"Plane.002",
			"primitives":[
				{
					"attributes":{
						"POSITION":4,
						"NORMAL":5,
						"TEXCOORD_0":6
					},
					"indices":7,
					"material":1
				},
				{
					"attributes":{
						"POSITION":8,
						"NORMAL":9,
						"TEXCOORD_0":10
					},
					"indices":11,
					"material":2
				}
			]
		},
		{
			"name":"Cylinder.001",
			"primitives":[
				{
					"attributes":{
						"POSITION":12,
						"NORMAL":13,
						"TEXCOORD_0":14
					},
					"indices":15,
					"material":3
				}
			]
		},
		{
			"name":"Cylinder.003",
			"primitives":[
				{
					"attributes":{
						"POSITION":16,
						"NORMAL":17,
						"TEXCOORD_0":18
					},
					"indices":19,
					"material":3
				}
			]
		},
		{
			"name":"Cylinder.004",
			"primitives":[
				{
					"attributes":{
						"POSITION":20,
						"NORMAL":21,
						"TEXCOORD_0":22
					},
					"indices":19,
					"material":3
				}
			]
		}
	],
	"textures":[
		{
			"extensions":{
				"EXT_texture_webp":{
					"source":0
				}
			},
			"sampler":0
		},
		{
			"sampler":0,
			"source":1
		}
	],
	"images":[
		{
			"mimeType":"image/webp",
			"name":"arbol_B_diffuse",
			"uri":"arbol_B_diffuse.webp"
		},
		{
			"mimeType":"image/png",
			"name":"arbol_B_metallic-arbol_B_roughness",
			"uri":"arbol_B_metallic-arbol_B_roughness.png"
		}
	],
	"accessors":[
		{
			"bufferView":0,
			"componentType":5126,
			"count":4,
			"max":[
				1,
				0,
				1
			],
			"min":[
				-1,
				0,
				-1
			],
			"type":"VEC3"
		},
		{
			"bufferView":1,
			"componentType":5126,
			"count":4,
			"type":"VEC3"
		},
		{
			"bufferView":2,
			"componentType":5126,
			"count":4,
			"type":"VEC2"
		},
		{
			"bufferView":3,
			"componentType":5123,
			"count":6,
			"type":"SCALAR"
		},
		{
			"bufferView":4,
			"componentType":5126,
			"count":576,
			"max":[
				0.9977266788482666,
				0,
				0.9957616329193115
			],
			"min":[
				-0.9965859055519104,
				-0.02188592404127121,
				-0.9828789830207825
			],
			"type":"VEC3"
		},
		{
			"bufferView":5,
			"componentType":5126,
			"count":576,
			"type":"VEC3"
		},
		{
			"bufferView":6,
			"componentType":5126,
			"count":576,
			"type":"VEC2"
		},
		{
			"bufferView":7,
			"componentType":5123,
			"count":999,
			"type":"SCALAR"
		},
		{
			"bufferView":8,
			"componentType":5126,
			"count":116,
			"max":[
				0.9859453439712524,
				0,
				0.9635655879974365
			],
			"min":[
				-0.9743202924728394,
				0,
				-0.9559104442596436
			],
			"type":"VEC3"
		},
		{
			"bufferView":9,
			"componentType":5126,
			"count":116,
			"type":"VEC3"
		},
		{
			"bufferView":10,
			"componentType":5126,
			"count":116,
			"type":"VEC2"
		},
		{
			"bufferView":11,
			"componentType":5123,
			"count":309,
			"type":"SCALAR"
		},
		{
			"bufferView":12,
			"componentType":5126,
			"count":2585,
			"max":[
				1.3683356046676636,
				9.316410064697266,
				5.879095077514648
			],
			"min":[
				-1.2549920082092285,
				-1.4252060509534203e-07,
				-1.0005486011505127
			],
			"type":"VEC3"
		},
		{
			"bufferView":13,
			"componentType":5126,
			"count":2585,
			"type":"VEC3"
		},
		{
			"bufferView":14,
			"componentType":5126,
			"count":2585,
			"type":"VEC2"
		},
		{
			"bufferView":15,
			"componentType":5123,
			"count":5604,
			"type":"SCALAR"
		},
		{
			"bufferView":16,
			"componentType":5126,
			"count":2416,
			"max":[
				1.3683356046676636,
				10.224045753479004,
				5.65336799621582
			],
			"min":[
				-1.2549920082092285,
				-1.4252060509534203e-07,
				-0.960250973701477
			],
			"type":"VEC3"
		},
		{
			"bufferView":17,
			"componentType":5126,
			"count":2416,
			"type":"VEC3"
		},
		{
			"bufferView":18,
			"componentType":5126,
			"count":2416,
			"type":"VEC2"
		},
		{
			"bufferView":19,
			"componentType":5123,
			"count":5100,
			"type":"SCALAR"
		},
		{
			"bufferView":20,
			"componentType":5126,
			"count":2416,
			"max":[
				1.3683356046676636,
				10.224045753479004,
				5.65336799621582
			],
			"min":[
				-1.2549920082092285,
				-1.4252060509534203e-07,
				-0.960250973701477
			],
			"type":"VEC3"
		},
		{
			"bufferView":21,
			"componentType":5126,
			"count":2416,
			"type":"VEC3"
		},
		{
			"bufferView":22,
			"componentType":5126,
			"count":2416,
			"type":"VEC2"
		}
	],
	"bufferViews":[
		{
			"buffer":0,
			"byteLength":48,
			"byteOffset":0,
			"target":34962
		},
		{
			"buffer":0,
			"byteLength":48,
			"byteOffset":48,
			"target":34962
		},
		{
			"buffer":0,
			"byteLength":32,
			"byteOffset":96,
			"target":34962
		},
		{
			"buffer":0,
			"byteLength":12,
			"byteOffset":128,
			"target":34963
		},
		{
			"buffer":0,
			"byteLength":6912,
			"byteOffset":140,
			"target":34962
		},
		{
			"buffer":0,
			"byteLength":6912,
			"byteOffset":7052,
			"target":34962
		},
		{
			"buffer":0,
			"byteLength":4608,
			"byteOffset":13964,
			"target":34962
		},
		{
			"buffer":0,
			"byteLength":1998,
			"byteOffset":18572,
			"target":34963
		},
		{
			"buffer":0,
			"byteLength":1392,
			"byteOffset":20572,
			"target":34962
		},
		{
			"buffer":0,
			"byteLength":1392,
			"byteOffset":21964,
			"target":34962
		},
		{
			"buffer":0,
			"byteLength":928,
			"byteOffset":23356,
			"target":34962
		},
		{
			"buffer":0,
			"byteLength":618,
			"byteOffset":24284,
			"target":34963
		},
		{
			"buffer":0,
			"byteLength":31020,
			"byteOffset":24904,
			"target":34962
		},
		{
			"buffer":0,
			"byteLength":31020,
			"byteOffset":55924,
			"target":34962
		},
		{
			"buffer":0,
			"byteLength":20680,
			"byteOffset":86944,
			"target":34962
		},
		{
			"buffer":0,
			"byteLength":11208,
			"byteOffset":107624,
			"target":34963
		},
		{
			"buffer":0,
			"byteLength":28992,
			"byteOffset":118832,
			"target":34962
		},
		{
			"buffer":0,
			"byteLength":28992,
			"byteOffset":147824,
			"target":34962
		},
		{
			"buffer":0,
			"byteLength":19328,
			"byteOffset":176816,
			"target":34962
		},
		{
			"buffer":0,
			"byteLength":10200,
			"byteOffset":196144,
			"target":34963
		},
		{
			"buffer":0,
			"byteLength":28992,
			"byteOffset":206344,
			"target":34962
		},
		{
			"buffer":0,
			"byteLength":28992,
			"byteOffset":235336,
			"target":34962
		},
		{
			"buffer":0,
			"byteLength":19328,
			"byteOffset":264328,
			"target":34962
		}
	],
	"samplers":[
		{
			"magFilter":9729,
			"minFilter":9987
		}
	],
	"buffers":[
		{
			"byteLength":283656,
			"uri":"MN_SCENE_01.bin"
		}
	]
}
