{
	"asset":{
		"generator":"Khronos glTF Blender I/O v4.5.47",
		"version":"2.0"
	},
	"extensionsUsed":[
		"KHR_materials_emissive_strength"
	],
	"scene":0,
	"scenes":[
		{
			"name":"Scene",
			"nodes":[
				0
			]
		}
	],
	"nodes":[
		{
			"mesh":0,
			"name":"FOSO MARCO.001"
		}
	],
	"materials":[
		{
			"doubleSided":true,
			"name":"marco.001",
			"normalTexture":{
				"index":0
			},
			"pbrMetallicRoughness":{
				"baseColorTexture":{
					"index":1
				},
				"metallicRoughnessTexture":{
					"index":2
				}
			}
		},
		{
			"doubleSided":true,
			"name":"cemento.001",
			"normalTexture":{
				"index":3
			},
			"pbrMetallicRoughness":{
				"baseColorTexture":{
					"index":4
				},
				"metallicRoughnessTexture":{
					"index":5
				}
			}
		},
		{
			"doubleSided":true,
			"name":"suelo",
			"normalTexture":{
				"index":6
			},
			"pbrMetallicRoughness":{
				"baseColorTexture":{
					"index":7
				},
				"metallicFactor":0,
				"metallicRoughnessTexture":{
					"index":8
				}
			}
		},
		{
			"doubleSided":true,
			"name":"marco",
			"normalTexture":{
				"index":9
			},
			"pbrMetallicRoughness":{
				"baseColorTexture":{
					"index":10
				},
				"metallicRoughnessTexture":{
					"index":11
				}
			}
		},
		{
			"doubleSided":true,
			"name":"muro paneles 2 cemento",
			"normalTexture":{
				"index":12,
				"scale":1.399999976158142
			},
			"pbrMetallicRoughness":{
				"baseColorTexture":{
					"index":13
				},
				"metallicRoughnessTexture":{
					"index":14
				}
			}
		},
		{
			"doubleSided":true,
			"emissiveFactor":[
				1,
				0.6062283515930176,
				0.3017308712005615
			],
			"extensions":{
				"KHR_materials_emissive_strength":{
					"emissiveStrength":14.699999809265137
				}
			},
			"name":"muro paneles 2 luz arriba",
			"pbrMetallicRoughness":{
				"baseColorFactor":[
					0.8000937700271606,
					0.2966211140155792,
					0.06560438871383667,
					1
				],
				"metallicFactor":0,
				"roughnessFactor":0.5
			}
		},
		{
			"doubleSided":true,
			"emissiveFactor":[
				1,
				0.015613449737429619,
				0.0055295927450060844
			],
			"extensions":{
				"KHR_materials_emissive_strength":{
					"emissiveStrength":12
				}
			},
			"name":"muro paneles 2 luz abajo",
			"pbrMetallicRoughness":{
				"baseColorFactor":[
					0.8001416921615601,
					0.008110612630844116,
					0.008110612630844116,
					1
				],
				"metallicFactor":0,
				"roughnessFactor":0.5
			}
		}
	],
	"meshes":[
		{
			"name":"Cube.003",
			"primitives":[
				{
					"attributes":{
						"POSITION":0,
						"NORMAL":1,
						"TEXCOORD_0":2,
						"TEXCOORD_1":3
					},
					"indices":4,
					"material":0
				},
				{
					"attributes":{
						"POSITION":5,
						"NORMAL":6,
						"TEXCOORD_0":7,
						"TEXCOORD_1":8
					},
					"indices":9,
					"material":1
				},
				{
					"attributes":{
						"POSITION":10,
						"NORMAL":11,
						"TEXCOORD_0":12,
						"TEXCOORD_1":13
					},
					"indices":14,
					"material":2
				},
				{
					"attributes":{
						"POSITION":15,
						"NORMAL":16,
						"TEXCOORD_0":17,
						"TEXCOORD_1":18
					},
					"indices":19,
					"material":3
				},
				{
					"attributes":{
						"POSITION":20,
						"NORMAL":21,
						"TEXCOORD_0":22,
						"TEXCOORD_1":23
					},
					"indices":24,
					"material":4
				},
				{
					"attributes":{
						"POSITION":25,
						"NORMAL":26,
						"TEXCOORD_0":27,
						"TEXCOORD_1":28
					},
					"indices":29,
					"material":5
				},
				{
					"attributes":{
						"POSITION":30,
						"NORMAL":31,
						"TEXCOORD_0":32,
						"TEXCOORD_1":33
					},
					"indices":34,
					"material":6
				}
			]
		}
	],
	"textures":[
		{
			"sampler":0,
			"source":0
		},
		{
			"sampler":0,
			"source":1
		},
		{
			"sampler":0,
			"source":2
		},
		{
			"sampler":0,
			"source":3
		},
		{
			"sampler":0,
			"source":4
		},
		{
			"sampler":0,
			"source":5
		},
		{
			"sampler":0,
			"source":6
		},
		{
			"sampler":0,
			"source":7
		},
		{
			"sampler":0,
			"source":8
		},
		{
			"sampler":0,
			"source":0
		},
		{
			"sampler":0,
			"source":1
		},
		{
			"sampler":0,
			"source":2
		},
		{
			"sampler":0,
			"source":9
		},
		{
			"sampler":0,
			"source":10
		},
		{
			"sampler":0,
			"source":11
		}
	],
	"images":[
		{
			"mimeType":"image/jpeg",
			"name":"foso marco y puerta_marco_Normal bevel",
			"uri":"foso%20marco%20y%20puerta_marco_Normal%20bevel.jpg"
		},
		{
			"mimeType":"image/png",
			"name":"foso marco y puerta_marco_BaseColor",
			"uri":"foso%20marco%20y%20puerta_marco_BaseColor.png"
		},
		{
			"mimeType":"image/png",
			"name":"foso marco y puerta_marco_Metallic-foso marco y puerta_marco_Roughness",
			"uri":"foso%20marco%20y%20puerta_marco_Metallic-foso%20marco%20y%20puerta_marco_Roughness.png"
		},
		{
			"mimeType":"image/jpeg",
			"name":"suelo planchas muros Normal bevel rejillas",
			"uri":"suelo%20planchas%20muros%20Normal%20bevel%20rejillas.jpg"
		},
		{
			"mimeType":"image/jpeg",
			"name":"suelo planchas muros BasedColor",
			"uri":"suelo%20planchas%20muros%20BasedColor.jpg"
		},
		{
			"mimeType":"image/png",
			"name":"suelo planchas muros Metallic-suelo planchas muros Roughness",
			"uri":"suelo%20planchas%20muros%20Metallic-suelo%20planchas%20muros%20Roughness.png"
		},
		{
			"mimeType":"image/jpeg",
			"name":"Poliigon_ConcreteFloorPoured_7656_BaseColor",
			"uri":"Poliigon_ConcreteFloorPoured_7656_BaseColor.jpg"
		},
		{
			"mimeType":"image/png",
			"name":"cemento diffuse color",
			"uri":"cemento%20diffuse%20color.png"
		},
		{
			"mimeType":"image/png",
			"name":"Poliigon_ConcreteFloorPoured_7656_BaseColor",
			"uri":"Poliigon_ConcreteFloorPoured_7656_BaseColor.png"
		},
		{
			"mimeType":"image/jpeg",
			"name":"muro paneles 2 NORMAL bevel y grietas",
			"uri":"muro%20paneles%202%20NORMAL%20bevel%20y%20grietas.jpg"
		},
		{
			"mimeType":"image/png",
			"name":"muro paneles 2 BaseColor",
			"uri":"muro%20paneles%202%20BaseColor.png"
		},
		{
			"mimeType":"image/png",
			"name":"muro paneles 2 Metallic-muro paneles 2 Roughness fuerte",
			"uri":"muro%20paneles%202%20Metallic-muro%20paneles%202%20Roughness%20fuerte.png"
		}
	],
	"accessors":[
		{
			"bufferView":0,
			"componentType":5126,
			"count":2272,
			"max":[
				1.5922001600265503,
				0.14615091681480408,
				-1.4663987159729004
			],
			"min":[
				-1.586374044418335,
				0.0063653066754341125,
				-10.343477249145508
			],
			"type":"VEC3"
		},
		{
			"bufferView":1,
			"componentType":5126,
			"count":2272,
			"type":"VEC3"
		},
		{
			"bufferView":2,
			"componentType":5126,
			"count":2272,
			"type":"VEC2"
		},
		{
			"bufferView":3,
			"componentType":5126,
			"count":2272,
			"type":"VEC2"
		},
		{
			"bufferView":4,
			"componentType":5123,
			"count":3600,
			"type":"SCALAR"
		},
		{
			"bufferView":5,
			"componentType":5126,
			"count":4176,
			"max":[
				4.583127021789551,
				0.09148681163787842,
				0.023523807525634766
			],
			"min":[
				-4.68477201461792,
				-0.004162542521953583,
				-11.93575668334961
			],
			"type":"VEC3"
		},
		{
			"bufferView":6,
			"componentType":5126,
			"count":4176,
			"type":"VEC3"
		},
		{
			"bufferView":7,
			"componentType":5126,
			"count":4176,
			"type":"VEC2"
		},
		{
			"bufferView":8,
			"componentType":5126,
			"count":4176,
			"type":"VEC2"
		},
		{
			"bufferView":9,
			"componentType":5123,
			"count":4176,
			"type":"SCALAR"
		},
		{
			"bufferView":10,
			"componentType":5126,
			"count":4,
			"max":[
				5.999999046325684,
				1.4901161193847656e-08,
				0.04866600036621094
			],
			"min":[
				-6,
				0,
				-11.951333999633789
			],
			"type":"VEC3"
		},
		{
			"bufferView":11,
			"componentType":5126,
			"count":4,
			"type":"VEC3"
		},
		{
			"bufferView":12,
			"componentType":5126,
			"count":4,
			"type":"VEC2"
		},
		{
			"bufferView":13,
			"componentType":5126,
			"count":4,
			"type":"VEC2"
		},
		{
			"bufferView":14,
			"componentType":5123,
			"count":6,
			"type":"SCALAR"
		},
		{
			"bufferView":15,
			"componentType":5126,
			"count":172,
			"max":[
				1.081471562385559,
				0.005248159170150757,
				-2.3318681716918945
			],
			"min":[
				-1.0854613780975342,
				-0.11084876954555511,
				-9.478498458862305
			],
			"type":"VEC3"
		},
		{
			"bufferView":16,
			"componentType":5126,
			"count":172,
			"type":"VEC3"
		},
		{
			"bufferView":17,
			"componentType":5126,
			"count":172,
			"type":"VEC2"
		},
		{
			"bufferView":18,
			"componentType":5126,
			"count":172,
			"type":"VEC2"
		},
		{
			"bufferView":19,
			"componentType":5123,
			"count":240,
			"type":"SCALAR"
		},
		{
			"bufferView":20,
			"componentType":5126,
			"count":32256,
			"max":[
				5.720449447631836,
				3.3942863941192627,
				0.01882028579711914
			],
			"min":[
				-5.739025592803955,
				0.07387488335371017,
				-11.62647819519043
			],
			"type":"VEC3"
		},
		{
			"bufferView":21,
			"componentType":5126,
			"count":32256,
			"type":"VEC3"
		},
		{
			"bufferView":22,
			"componentType":5126,
			"count":32256,
			"type":"VEC2"
		},
		{
			"bufferView":23,
			"componentType":5126,
			"count":32256,
			"type":"VEC2"
		},
		{
			"bufferView":24,
			"componentType":5123,
			"count":32256,
			"type":"SCALAR"
		},
		{
			"bufferView":25,
			"componentType":5126,
			"count":576,
			"max":[
				4.261338233947754,
				2.785109519958496,
				-0.1262187957763672
			],
			"min":[
				-4.279914855957031,
				2.6824162006378174,
				-11.481439590454102
			],
			"type":"VEC3"
		},
		{
			"bufferView":26,
			"componentType":5126,
			"count":576,
			"type":"VEC3"
		},
		{
			"bufferView":27,
			"componentType":5126,
			"count":576,
			"type":"VEC2"
		},
		{
			"bufferView":28,
			"componentType":5126,
			"count":576,
			"type":"VEC2"
		},
		{
			"bufferView":29,
			"componentType":5123,
			"count":576,
			"type":"SCALAR"
		},
		{
			"bufferView":30,
			"componentType":5126,
			"count":1920,
			"max":[
				4.683040142059326,
				0.4547986388206482,
				-0.41989994049072266
			],
			"min":[
				-4.7016167640686035,
				0.10266152024269104,
				-11.187756538391113
			],
			"type":"VEC3"
		},
		{
			"bufferView":31,
			"componentType":5126,
			"count":1920,
			"type":"VEC3"
		},
		{
			"bufferView":32,
			"componentType":5126,
			"count":1920,
			"type":"VEC2"
		},
		{
			"bufferView":33,
			"componentType":5126,
			"count":1920,
			"type":"VEC2"
		},
		{
			"bufferView":34,
			"componentType":5123,
			"count":1920,
			"type":"SCALAR"
		}
	],
	"bufferViews":[
		{
			"buffer":0,
			"byteLength":27264,
			"byteOffset":0,
			"target":34962
		},
		{
			"buffer":0,
			"byteLength":27264,
			"byteOffset":27264,
			"target":34962
		},
		{
			"buffer":0,
			"byteLength":18176,
			"byteOffset":54528,
			"target":34962
		},
		{
			"buffer":0,
			"byteLength":18176,
			"byteOffset":72704,
			"target":34962
		},
		{
			"buffer":0,
			"byteLength":7200,
			"byteOffset":90880,
			"target":34963
		},
		{
			"buffer":0,
			"byteLength":50112,
			"byteOffset":98080,
			"target":34962
		},
		{
			"buffer":0,
			"byteLength":50112,
			"byteOffset":148192,
			"target":34962
		},
		{
			"buffer":0,
			"byteLength":33408,
			"byteOffset":198304,
			"target":34962
		},
		{
			"buffer":0,
			"byteLength":33408,
			"byteOffset":231712,
			"target":34962
		},
		{
			"buffer":0,
			"byteLength":8352,
			"byteOffset":265120,
			"target":34963
		},
		{
			"buffer":0,
			"byteLength":48,
			"byteOffset":273472,
			"target":34962
		},
		{
			"buffer":0,
			"byteLength":48,
			"byteOffset":273520,
			"target":34962
		},
		{
			"buffer":0,
			"byteLength":32,
			"byteOffset":273568,
			"target":34962
		},
		{
			"buffer":0,
			"byteLength":32,
			"byteOffset":273600,
			"target":34962
		},
		{
			"buffer":0,
			"byteLength":12,
			"byteOffset":273632,
			"target":34963
		},
		{
			"buffer":0,
			"byteLength":2064,
			"byteOffset":273644,
			"target":34962
		},
		{
			"buffer":0,
			"byteLength":2064,
			"byteOffset":275708,
			"target":34962
		},
		{
			"buffer":0,
			"byteLength":1376,
			"byteOffset":277772,
			"target":34962
		},
		{
			"buffer":0,
			"byteLength":1376,
			"byteOffset":279148,
			"target":34962
		},
		{
			"buffer":0,
			"byteLength":480,
			"byteOffset":280524,
			"target":34963
		},
		{
			"buffer":0,
			"byteLength":387072,
			"byteOffset":281004,
			"target":34962
		},
		{
			"buffer":0,
			"byteLength":387072,
			"byteOffset":668076,
			"target":34962
		},
		{
			"buffer":0,
			"byteLength":258048,
			"byteOffset":1055148,
			"target":34962
		},
		{
			"buffer":0,
			"byteLength":258048,
			"byteOffset":1313196,
			"target":34962
		},
		{
			"buffer":0,
			"byteLength":64512,
			"byteOffset":1571244,
			"target":34963
		},
		{
			"buffer":0,
			"byteLength":6912,
			"byteOffset":1635756,
			"target":34962
		},
		{
			"buffer":0,
			"byteLength":6912,
			"byteOffset":1642668,
			"target":34962
		},
		{
			"buffer":0,
			"byteLength":4608,
			"byteOffset":1649580,
			"target":34962
		},
		{
			"buffer":0,
			"byteLength":4608,
			"byteOffset":1654188,
			"target":34962
		},
		{
			"buffer":0,
			"byteLength":1152,
			"byteOffset":1658796,
			"target":34963
		},
		{
			"buffer":0,
			"byteLength":23040,
			"byteOffset":1659948,
			"target":34962
		},
		{
			"buffer":0,
			"byteLength":23040,
			"byteOffset":1682988,
			"target":34962
		},
		{
			"buffer":0,
			"byteLength":15360,
			"byteOffset":1706028,
			"target":34962
		},
		{
			"buffer":0,
			"byteLength":15360,
			"byteOffset":1721388,
			"target":34962
		},
		{
			"buffer":0,
			"byteLength":3840,
			"byteOffset":1736748,
			"target":34963
		}
	],
	"samplers":[
		{
			"magFilter":9729,
			"minFilter":9987
		}
	],
	"buffers":[
		{
			"byteLength":1740588,
			"uri":"modulo_1.bin"
		}
	]
}
